<svg width="16" height="16" viewBox="0 0 16 16" fill="none" xmlns="http://www.w3.org/2000/svg">
<path fill-rule="evenodd" clip-rule="evenodd" d="M5 3.25464V4.00464H2.75C2.33579 4.00464 2 4.34043 2 4.75464C2 5.16885 2.33579 5.50464 2.75 5.50464H3.05L3.86493 13.6539C3.94161 14.4207 4.58685 15.0046 5.35748 15.0046H10.6425C11.4131 15.0046 12.0584 14.4207 12.1351 13.6539L12.95 5.50464H13.25C13.6642 5.50464 14 5.16885 14 4.75464C14 4.34043 13.6642 4.00464 13.25 4.00464H11V3.25464C11 2.012 9.99264 1.00464 8.75 1.00464H7.25C6.00736 1.00464 5 2.012 5 3.25464ZM7.25 2.50464C6.83579 2.50464 6.5 2.84043 6.5 3.25464V4.00464H9.5V3.25464C9.5 2.84043 9.16421 2.50464 8.75 2.50464H7.25ZM6.05044 6.00557C6.46413 5.98489 6.81627 6.30349 6.83696 6.71719L7.11195 12.2172C7.13264 12.6309 6.81404 12.983 6.40034 13.0037C5.98665 13.0244 5.63451 12.7058 5.61383 12.2921L5.33883 6.79209C5.31814 6.3784 5.63674 6.02626 6.05044 6.00557ZM9.95034 6.00557C10.364 6.02626 10.6826 6.3784 10.662 6.79209L10.387 12.2921C10.3663 12.7058 10.0141 13.0244 9.60044 13.0037C9.18674 12.983 8.86814 12.6309 8.88883 12.2172L9.16383 6.71719C9.18451 6.30349 9.53665 5.98489 9.95034 6.00557Z" fill="#fff"/>
</svg>
